8888888888                888      8888888888                       
888                       888      888                              
888                       888      888                              
8888888  .d88b.   .d88b.  888      8888888 888d888 .d88b.   .d88b.  
888     d8P  Y8b d8P  Y8b 888      888     888P"  d8P  Y8b d8P  Y8b 
888     88888888 88888888 888      888     888    88888888 88888888 
888     Y8b.     Y8b.     888      888     888    Y8b.     Y8b.     
888      "Y8888   "Y8888  888      888     888     "Y8888   "Y8888  


Genre:Horror | Thriller
Language:English
IMDb: 
http://www.imdb.com/title/tt1602617
Source:DVD Thanks
Encoder:Tony

Format : Matroska
Format version : Version 2
File size : 1.74 GiB
Duration : 1h 38mn
Overall bit rate : 2 524 Kbps

Video
ID : 1
Format : AVC
Format/Info : Advanced Video Codec
Format profile : High@L4.1
Format settings, CABAC : Yes
Format settings, ReFrames : 3 frames
Codec ID : V_MPEG4/ISO/AVC
Duration : 1h 38mn
Bit rate : 2 026 Kbps
Nominal bit rate : 2 150 Kbps
Width : 720 pixels
Height : 304 pixels
Display aspect ratio : 2.35:1
Frame rate : 23.976 fps
Color space : YUV
Chroma subsampling : 4:2:0
Bit depth : 8 bits
Scan type : Progressive
Bits/(Pixel*Frame) : 0.386
Stream size : 1.40 GiB (80%)
Writing library : x264

Audio
ID : 2
Format : AC-3
Format/Info : Audio Coding 3
Mode extension : CM (complete main)
Codec ID : A_AC3
Duration : 1h 38mn
Bit rate mode : Constant
Bit rate : 448 Kbps
Channel(s) : 6 channels
Channel positions : Front: L C R, Side: L R, LFE
Sampling rate : 48.0 KHz
Bit depth : 16 bits
Compression mode : Lossy
Stream size : 317 MiB (18%)


Plot:
Friends on a weekend excursion take a path into a forest that leads to death and destruction.

Screen Shots:
                                 
http://img19.imageshack.us/img19/1429/vlcsnap2012072715h29m10.png
 
http://img208.imageshack.us/img208/6667/vlcsnap2012072715h29m35.png
 
http://img52.imageshack.us/img52/4362/vlcsnap2012072715h29m24.png
 
http://img713.imageshack.us/img713/7664/vlcsnap2012072715h30m29.png


8888888888                888      8888888888                       
888                       888      888                              
888                       888      888                              
8888888  .d88b.   .d88b.  888      8888888 888d888 .d88b.   .d88b.  
888     d8P  Y8b d8P  Y8b 888      888     888P"  d8P  Y8b d8P  Y8b 
888     88888888 88888888 888      888     888    88888888 88888888 
888     Y8b.     Y8b.     888      888     888    Y8b.     Y8b.     
888      "Y8888   "Y8888  888      888     888     "Y8888   "Y8888  